<?xml version="1.0" encoding="UTF-8"?>
<svg xmlns="http://www.w3.org/2000/svg" xmlns:xlink="http://www.w3.org/1999/xlink" width="150pt" height="150pt" viewBox="0 0 150 150" version="1.1">
<g id="surface3855729">
<path style="fill-rule:nonzero;fill:rgb(0%,0%,0%);fill-opacity:1;stroke-width:5;stroke-linecap:butt;stroke-linejoin:round;stroke:rgb(0%,0%,0%);stroke-opacity:1;stroke-miterlimit:10;" d="M 116.957862 6.88188 C 118.331104 6.88188 119.354124 7.204454 120.722758 7.204454 L 114.916431 13.761917 L 24.079668 13.761917 C 18.236475 13.761917 13.761917 18.236475 13.761917 24.079668 L 13.761917 116.957862 C 13.761917 122.805663 18.236475 127.280221 24.079668 127.280221 L 116.957862 127.280221 C 122.805663 127.280221 127.280221 122.805663 127.280221 116.957862 L 127.280221 41.282064 L 134.160258 33.75688 L 134.160258 116.957862 C 134.160258 126.5936 126.5936 134.160258 116.957862 134.160258 L 24.079668 134.160258 C 14.44393 134.160258 6.88188 126.5936 6.88188 116.957862 L 6.88188 24.079668 C 6.88188 14.44393 14.44393 6.88188 24.079668 6.88188 Z M 129.860811 22.895362 L 67.940479 91.69573 L 65.682463 94.27632 L 63.101873 92.018304 L 32.144011 64.498157 L 36.655436 59.341585 L 65.143304 84.603717 L 124.699631 18.383938 Z M 147.920332 37.839742 C 157.55607 37.839742 165.11812 45.4064 165.11812 55.042138 L 165.11812 147.920332 C 165.11812 157.55607 157.55607 165.11812 147.920332 165.11812 L 55.042138 165.11812 C 45.4064 165.11812 37.839742 157.55607 37.839742 147.920332 L 37.839742 141.040295 L 44.719779 141.040295 L 44.719779 147.920332 C 44.719779 153.763525 49.194337 158.238083 55.042138 158.238083 L 147.920332 158.238083 C 153.763525 158.238083 158.238083 153.763525 158.238083 147.920332 L 158.238083 55.042138 C 158.238083 49.194337 153.763525 44.719779 147.920332 44.719779 L 141.040295 44.719779 L 141.040295 37.839742 Z M 147.920332 37.839742 " transform="matrix(0.847674,0,0,0.847674,2.1,2.1)"/>
<path style=" stroke:none;fill-rule:nonzero;fill:rgb(0%,0%,0%);fill-opacity:1;" d="M 22.511719 7.933594 C 14.34375 7.933594 7.933594 14.34375 7.933594 22.511719 L 7.933594 101.242188 C 7.933594 109.410156 14.34375 115.824219 22.511719 115.824219 L 101.242188 115.824219 C 109.410156 115.824219 115.824219 109.410156 115.824219 101.242188 L 115.824219 30.714844 L 109.992188 37.09375 L 109.992188 101.242188 C 109.992188 106.199219 106.199219 109.992188 101.242188 109.992188 L 22.511719 109.992188 C 17.558594 109.992188 13.765625 106.199219 13.765625 101.242188 L 13.765625 22.511719 C 13.765625 17.558594 17.558594 13.765625 22.511719 13.765625 L 99.511719 13.765625 L 104.433594 8.207031 C 103.273438 8.207031 102.40625 7.933594 101.242188 7.933594 Z M 107.804688 17.683594 L 57.320312 73.816406 L 33.171875 52.402344 L 29.347656 56.773438 L 55.589844 80.101562 L 57.777344 82.015625 L 59.691406 79.828125 L 112.179688 21.507812 Z M 121.65625 34.175781 L 121.65625 40.007812 L 127.488281 40.007812 C 132.441406 40.007812 136.234375 43.800781 136.234375 48.757812 L 136.234375 127.488281 C 136.234375 132.441406 132.441406 136.234375 127.488281 136.234375 L 48.757812 136.234375 C 43.800781 136.234375 40.007812 132.441406 40.007812 127.488281 L 40.007812 121.65625 L 34.175781 121.65625 L 34.175781 127.488281 C 34.175781 135.65625 40.589844 142.066406 48.757812 142.066406 L 127.488281 142.066406 C 135.65625 142.066406 142.066406 135.65625 142.066406 127.488281 L 142.066406 48.757812 C 142.066406 40.589844 135.65625 34.175781 127.488281 34.175781 Z M 121.65625 34.175781 "/>
</g>
</svg>
