<svg id="Layer_1" data-name="Layer 1" xmlns="http://www.w3.org/2000/svg" viewBox="0 0 40 47.31"><defs><style>.cls-1{fill:#4ff3a7;}.cls-2{fill:none;stroke-width:2px;}.cls-2,.cls-3{stroke:#4ff3a7;stroke-miterlimit:10;}.cls-3{fill:#2e2c2c;}</style></defs><path class="cls-1" d="M164.65,136.34h2.87v20.45h-2.87Zm1.94,17.73h4.63a4.93,4.93,0,0,0,3.51-1.18,4.33,4.33,0,0,0,1.24-3.31v-6a4.35,4.35,0,0,0-1.24-3.32,4.93,4.93,0,0,0-3.51-1.17h-4.63v-2.73h4.54a9.33,9.33,0,0,1,4.21.86,6,6,0,0,1,2.66,2.5,8.06,8.06,0,0,1,.92,4v5.79a8.06,8.06,0,0,1-.92,4,6,6,0,0,1-2.67,2.51,9.49,9.49,0,0,1-4.21.85h-4.53Z" transform="translate(-155 -123.5)"/><path class="cls-1" d="M179.92,149.76h1v7h-1Zm.43,3.11h2.39a.91.91,0,0,0,.5-.13.87.87,0,0,0,.34-.39,1.41,1.41,0,0,0,.11-.57,1.48,1.48,0,0,0-.11-.57.9.9,0,0,0-.34-.38.92.92,0,0,0-.5-.14h-2.39v-.93h2.36a2.13,2.13,0,0,1,1.06.25,1.76,1.76,0,0,1,.72.71,2.35,2.35,0,0,1,0,2.13,1.8,1.8,0,0,1-.71.71,2.16,2.16,0,0,1-1.06.25h-2.36Zm1.91.72,1-.22,1.79,3.4h-1.16Z" transform="translate(-155 -123.5)"/><path class="cls-2" d="M173.42,125.83,157.82,134a3.4,3.4,0,0,0-1.82,3V157a3.4,3.4,0,0,0,1.82,3l15.6,8.21a3.4,3.4,0,0,0,3.16,0l15.6-8.21a3.4,3.4,0,0,0,1.82-3v-19.9a3.4,3.4,0,0,0-1.82-3l-15.6-8.21A3.4,3.4,0,0,0,173.42,125.83Z" transform="translate(-155 -123.5)"/><ellipse class="cls-3" cx="20" cy="45.4" rx="1.41" ry="1.4"/><ellipse class="cls-3" cx="20" cy="1.65" rx="1.25" ry="1.15"/></svg>